<?xml version="1.0" encoding="iso-8859-1"?>
<!-- Generator: Adobe Illustrator 19.0.0, SVG Export Plug-In . SVG Version: 6.00 Build 0)  -->
<svg version="1.1" id="Capa_1" xmlns="http://www.w3.org/2000/svg" xmlns:xlink="http://www.w3.org/1999/xlink" x="0px" y="0px"
	 viewBox="0 0 512 512" style="enable-background:new 0 0 512 512;" xml:space="preserve">
<path style="fill:#AAC4DA;" d="M501.333,458.667v42.667H10.667v-42.667H32h42.667H480H501.333z"/>
<path style="fill:#D9EEF7;" d="M480,416v42.667H74.667H32V416h21.333H160h42.667h106.667H352h106.667H480z"/>
<path style="fill:#F2F2F2;" d="M458.667,384v32H352v-32h10.667H448H458.667z"/>
<path style="fill:#D9EEF7;" d="M448,341.333V384h-85.333v-42.667h42.667H448z"/>
<g>
	<path style="fill:#AAC4DA;" d="M448,192v149.333h-42.667v-10.667V192H448z"/>
	<path style="fill:#AAC4DA;" d="M405.333,330.667v10.667h-42.667V192h42.667V330.667z"/>
</g>
<g>
	<path style="fill:#F2F2F2;" d="M458.667,160v32H448h-42.667h-42.667H352v-32H458.667z"/>
	<path style="fill:#F2F2F2;" d="M160,160v32h-10.667h-42.667H64H53.333v-32H160z"/>
</g>
<g>
	<path style="fill:#AAC4DA;" d="M64,192h42.667v149.333H64V192z"/>
	<path style="fill:#AAC4DA;" d="M106.667,192h42.667v149.333h-42.667V192z"/>
</g>
<path style="fill:#D9EEF7;" d="M149.333,341.333V384H64v-42.667h42.667H149.333z"/>
<g>
	<path style="fill:#F2F2F2;" d="M160,384v32H53.333v-32H64h85.333H160z"/>
	<path style="fill:#F2F2F2;" d="M309.333,384v32H202.667v-32h10.667h85.333H309.333z"/>
</g>
<path style="fill:#D9EEF7;" d="M298.667,341.333V384h-85.333v-42.667H256H298.667z"/>
<g>
	<path style="fill:#AAC4DA;" d="M256,192h42.667v149.333H256V192z"/>
	<path style="fill:#AAC4DA;" d="M213.333,192H256v149.333h-42.667V192z"/>
</g>
<path style="fill:#F2F2F2;" d="M309.333,160v32h-10.667H256h-42.667h-10.667v-32H309.333z"/>
<path style="fill:#AAC4DA;" d="M437.333,117.333V160h-128H202.667H160H53.333H10.667v-42.667h32H192v-32l10.667-10.667H256h53.333
	L320,85.333v32H437.333z"/>
<path style="fill:#D9EEF7;" d="M448,42.667v74.667H320v-32l-10.667-10.667H256h-53.333L192,85.333v32H42.667V42.667l32-32H256h192
	V42.667z"/>
<circle style="fill:#FFE451;" cx="394.667" cy="213.333" r="106.667"/>
<g>
	<path style="fill:#4C5B66;" d="M501.333,448h-10.667v-32c0-5.891-4.776-10.667-10.667-10.667h-10.667V384
		c0-5.891-4.776-10.667-10.667-10.667V352h-21.333v21.333h-64V352H352v21.333c-5.891,0-10.667,4.776-10.667,10.667v21.333H320V384
		c0-5.891-4.776-10.667-10.667-10.667v-64H288v21.333h-21.333V256h-21.333v74.667H224v-128h32v-21.333h-42.667v-10.667h53.333
		v-21.333H21.333V128H192c5.891,0,10.667-4.776,10.667-10.667V89.749l4.416-4.416h97.835l7.541,7.541l15.083-15.083l-10.667-10.667
		c-2-2.001-4.713-3.125-7.541-3.125H202.667c-2.829,0.001-5.541,1.125-7.541,3.125l-10.667,10.667c-2.001,2-3.125,4.713-3.125,7.541
		v21.333h-128V47.083l25.749-25.749h315.584V0h-320c-2.829,0.001-5.541,1.125-7.541,3.125l-32,32c-2.001,2-3.125,4.713-3.125,7.541
		v64H10.667C4.776,106.667,0,111.442,0,117.333V160c0,5.891,4.776,10.667,10.667,10.667h32V192c0,5.891,4.776,10.667,10.667,10.667
		v170.667c-5.891,0-10.667,4.776-10.667,10.667v21.333H32c-5.891,0-10.667,4.776-10.667,10.667v32H10.667
		C4.776,448,0,452.776,0,458.667v42.667C0,507.224,4.776,512,10.667,512h490.667c5.891,0,10.667-4.776,10.667-10.667v-42.667
		C512,452.776,507.224,448,501.333,448z M362.667,394.667H448v10.667h-85.333V394.667z M213.333,394.667h85.333v10.667h-85.333
		V394.667z M288,352v21.333h-64V352H288z M202.667,202.667v170.667c-5.891,0-10.667,4.776-10.667,10.667v21.333h-21.333V384
		c0-5.891-4.776-10.667-10.667-10.667V202.667c5.891,0,10.667-4.776,10.667-10.667v-21.333H192V192
		C192,197.891,196.776,202.667,202.667,202.667z M138.667,202.667v128h-21.333v-128H138.667z M149.333,170.667v10.667H64v-10.667
		H149.333z M96,202.667v128H74.667v-128H96z M74.667,352h64v21.333h-64V352z M64,394.667h85.333v10.667H64V394.667z
		 M490.667,490.667H21.333v-21.333H32c5.891,0,10.667-4.776,10.667-10.667v-32h426.667V448H74.667v21.333h416V490.667z"/>
	<path style="fill:#4C5B66;" d="M85.333,64h21.333v21.333H85.333V64z"/>
	<path style="fill:#4C5B66;" d="M490.667,213.333c0,53.019-42.981,96-96,96s-96-42.981-96-96s42.981-96,96-96H448
		c5.891,0,10.667-4.776,10.667-10.667V85.333h-21.333V96h-42.667c-64.801,0-117.333,52.532-117.333,117.333
		s52.532,117.333,117.333,117.333S512,278.135,512,213.333V42.667h-21.333V213.333z"/>
	<path style="fill:#4C5B66;" d="M437.333,192v-10.667c0-11.782-9.551-21.333-21.333-21.333h-10.667v-21.333H384V160h-10.667
		C361.551,160,352,169.551,352,181.333v21.333c0,11.782,9.551,21.333,21.333,21.333H416v21.333h-42.667v-10.667H352v10.667
		c0,11.782,9.551,21.333,21.333,21.333H384V288h21.333v-21.333H416c11.782,0,21.333-9.551,21.333-21.333V224
		c0-11.782-9.551-21.333-21.333-21.333h-42.667v-21.333H416V192H437.333z"/>
	<path style="fill:#4C5B66;" d="M490.667,0H512v21.333h-21.333V0z"/>
	<path style="fill:#4C5B66;" d="M437.333,0h21.333v21.333h-21.333V0z"/>
	<path style="fill:#4C5B66;" d="M437.333,42.667h21.333V64h-21.333V42.667z"/>
</g>
<g>
</g>
<g>
</g>
<g>
</g>
<g>
</g>
<g>
</g>
<g>
</g>
<g>
</g>
<g>
</g>
<g>
</g>
<g>
</g>
<g>
</g>
<g>
</g>
<g>
</g>
<g>
</g>
<g>
</g>
</svg>
